<svg width="17" height="17" viewBox="0 0 17 17" fill="none" xmlns="http://www.w3.org/2000/svg">
<path d="M7.72633 0.526379C7.98614 -0.175732 8.97919 -0.175733 9.239 0.526378L11.0549 5.43374C11.1366 5.65448 11.3106 5.82852 11.5313 5.9102L16.4387 7.72609C17.1408 7.98589 17.1408 8.97895 16.4387 9.23875L11.5313 11.0546C11.3106 11.1363 11.1366 11.3104 11.0549 11.5311L9.239 16.4385C8.97919 17.1406 7.98614 17.1406 7.72633 16.4385L5.91045 11.5311C5.82877 11.3104 5.65472 11.1363 5.43398 11.0546L0.526623 9.23875C-0.175488 8.97895 -0.175489 7.98589 0.526622 7.72609L5.43398 5.9102C5.65472 5.82852 5.82876 5.65448 5.91045 5.43374L7.72633 0.526379Z" fill="#FF7B30"/>
</svg>
