<svg width="24" height="24" viewBox="0 0 24 24" fill="none" xmlns="http://www.w3.org/2000/svg">
<path d="M10.2089 16.2H12.1241M12.1241 16.2H14.1281M12.1241 16.2V7.8M12.1241 7.8H9C8.66863 7.8 8.4 8.06863 8.4 8.4V9.28235M12.1241 7.8H15C15.3314 7.8 15.6 8.06863 15.6 8.4V9.52941M4.8 21.6H19.2C20.5255 21.6 21.6 20.5255 21.6 19.2V4.8C21.6 3.47452 20.5255 2.4 19.2 2.4H4.8C3.47452 2.4 2.4 3.47452 2.4 4.8V19.2C2.4 20.5255 3.47452 21.6 4.8 21.6Z" stroke="#484F57" stroke-width="1.5" stroke-linecap="round" stroke-linejoin="round"/>
</svg>
