<svg width="24" height="24" viewBox="0 0 24 24" fill="none" xmlns="http://www.w3.org/2000/svg">
<path d="M20.968 10.3522C20.968 9.39613 20.6088 8.4851 19.9565 7.78678C19.4668 7.26246 18.8464 6.8947 18.1651 6.71624C18.1745 6.61423 18.1798 6.51136 18.1798 6.40775C18.1798 4.52868 16.6512 3 14.7721 3C13.6205 3 12.6012 3.57482 11.984 4.45205C11.3668 3.57482 10.3475 3 9.19586 3C7.31682 3 5.78818 4.52868 5.78818 6.40768C5.78818 6.51136 5.79356 6.61419 5.80291 6.71617C5.12162 6.89459 4.5013 7.26238 4.01149 7.7867C3.35918 8.48506 3 9.39613 3 10.3521C3 11.1495 3.24979 11.8895 3.67484 12.4984C3.2368 13.1254 3 13.8715 3 14.6478C3 16.3901 4.19158 17.8591 5.80258 18.2833C5.79334 18.3857 5.7881 18.4887 5.7881 18.5923C5.7881 20.4713 7.31679 22 9.19578 22C10.3475 22 11.3668 21.4251 11.9839 20.5479C12.6012 21.4252 13.6205 22 14.7721 22C16.6512 22 18.1798 20.4713 18.1798 18.5923C18.1798 18.4889 18.1746 18.3858 18.1653 18.2833C19.7763 17.8592 20.9679 16.3901 20.9679 14.6478C20.9679 13.8715 20.7311 13.1254 20.2931 12.4985C20.7182 11.8895 20.968 11.1495 20.968 10.3522ZM11.3644 15.7318V18.5923C11.3644 19.788 10.3916 20.7609 9.19586 20.7609C8.00008 20.7609 7.0273 19.788 7.0273 18.5923C7.0273 18.5266 7.03056 18.4613 7.03639 18.3962C7.99407 18.325 8.89642 17.8873 9.54558 17.1705L8.62716 16.3387C8.15004 16.8654 7.46912 17.1676 6.75896 17.1676C5.36951 17.1676 4.23916 16.0372 4.23916 14.6478C4.23916 14.2065 4.35327 13.7798 4.56698 13.4039C5.18445 13.8487 5.94159 14.1111 6.75896 14.1111V12.8719C5.36951 12.8719 4.23916 11.7416 4.23916 10.3522C4.23916 9.18699 5.04525 8.18778 6.1402 7.90983C6.51689 8.67306 7.17343 9.28945 7.99912 9.59916L8.43434 8.43897C7.59277 8.12328 7.0273 7.30699 7.0273 6.40772C7.0273 5.21194 8.00016 4.23916 9.19586 4.23916C10.3916 4.23916 11.3644 5.21202 11.3644 6.40772V9.26826V10.1296H10.8527V9.26826H9.61356V10.1296H8.75221V11.3687H9.61356V11.8805H8.75221V13.1196H9.61356V13.6313H8.75221V14.8704H9.61356V15.7317H10.8527V14.8704H11.3644V15.7318ZM10.8528 13.6313V11.3688H13.1153V13.6313H10.8528ZM19.401 13.4039C19.6147 13.7798 19.7288 14.2065 19.7288 14.6478C19.7288 16.0373 18.5984 17.1676 17.209 17.1676C16.4989 17.1676 15.818 16.8655 15.3408 16.3387L14.4225 17.1706C15.0716 17.8873 15.974 18.3249 16.9316 18.3963C16.9375 18.4613 16.9407 18.5266 16.9407 18.5924C16.9407 19.7881 15.9679 20.7609 14.7722 20.7609C13.5765 20.7609 12.6036 19.7881 12.6036 18.5924V15.7318V14.8705H13.1153V15.7318H14.3544V14.8705H15.2157V13.6314H14.3544V13.1197H15.2157V11.8805H14.3544V11.3688H15.2157V10.1297H14.3544V9.26833H13.1153V10.1297H12.6036V9.26833V6.40768C12.6036 5.2119 13.5764 4.23912 14.7721 4.23912C15.9678 4.23912 16.9407 5.2119 16.9407 6.40768C16.9407 7.30691 16.3752 8.12321 15.5337 8.43894L15.9689 9.59912C16.7946 9.28937 17.4511 8.67298 17.8278 7.90979C18.9228 8.18778 19.7289 9.18695 19.7289 10.3521C19.7289 11.7416 18.5985 12.8719 17.2091 12.8719V14.111C18.0264 14.1111 18.7835 13.8487 19.401 13.4039Z" fill="#484F57"/>
</svg>
