<svg width="188" height="219" viewBox="0 0 188 219" fill="none" xmlns="http://www.w3.org/2000/svg">
<g clip-path="url(#clip0_31158_207)">
<path d="M25.579 0L87.7725 57.3427V0.132282H99.8794V57.5992L162.351 0V65.3796H188V159.683H162.43V217.901L99.8794 162.906V218.532H87.7725V163.812L25.6495 218.568V159.683H0V65.3796H25.579V0ZM78.645 77.3467H12.1076V147.716H25.6348V125.519L78.645 77.3467ZM37.755 130.829V191.864L87.7725 147.779V85.3666L37.755 130.829ZM100.227 147.195V85.3079L150.259 130.772V159.683H150.324V191.24L100.227 147.195ZM162.43 147.716H175.893V77.3467H109.851L162.43 125.02V147.716ZM150.244 65.3796V27.5271L109.19 65.3796H150.244ZM78.7397 65.3796H37.6859V27.5271L78.7397 65.3796Z" fill="#3F7E8B"/>
</g>
<defs>
<clipPath id="clip0_31158_207">
<rect width="188" height="219" fill="white"/>
</clipPath>
</defs>
</svg>
