<svg width="20" height="20" viewBox="0 0 20 20" fill="none" xmlns="http://www.w3.org/2000/svg">
<g clip-path="url(#clip0_1092_782)">
<path d="M4.99999 12.5003L6.66666 14.167L10.4167 10.417M6.66666 6.66699V4.33366C6.66666 3.40024 6.66666 2.93353 6.84831 2.57701C7.0081 2.2634 7.26307 2.00844 7.57667 1.84865C7.93319 1.66699 8.3999 1.66699 9.33332 1.66699H15.6667C16.6001 1.66699 17.0668 1.66699 17.4233 1.84865C17.7369 2.00844 17.9919 2.2634 18.1517 2.57701C18.3333 2.93353 18.3333 3.40024 18.3333 4.33366V10.667C18.3333 11.6004 18.3333 12.0671 18.1517 12.4236C17.9919 12.7372 17.7369 12.9922 17.4233 13.152C17.0668 13.3337 16.6001 13.3337 15.6667 13.3337H13.3333M4.33332 18.3337H10.6667C11.6001 18.3337 12.0668 18.3337 12.4233 18.152C12.7369 17.9922 12.9919 17.7372 13.1517 17.4236C13.3333 17.0671 13.3333 16.6004 13.3333 15.667V9.33366C13.3333 8.40024 13.3333 7.93353 13.1517 7.57701C12.9919 7.2634 12.7369 7.00844 12.4233 6.84865C12.0668 6.66699 11.6001 6.66699 10.6667 6.66699H4.33332C3.3999 6.66699 2.93319 6.66699 2.57667 6.84865C2.26307 7.00844 2.0081 7.2634 1.84831 7.57701C1.66666 7.93353 1.66666 8.40024 1.66666 9.33366V15.667C1.66666 16.6004 1.66666 17.0671 1.84831 17.4236C2.0081 17.7372 2.26307 17.9922 2.57667 18.152C2.93319 18.3337 3.3999 18.3337 4.33332 18.3337Z" stroke="#484F57" stroke-width="1.5" stroke-linecap="round" stroke-linejoin="round"/>
</g>
<defs>
<clipPath id="clip0_1092_782">
<rect width="20" height="20" fill="white"/>
</clipPath>
</defs>
</svg>
