<svg width="184" height="41" viewBox="0 0 184 41" fill="none" xmlns="http://www.w3.org/2000/svg">
<path d="M29.7704 11.3477V15.0898L20.3855 21.9634L11 15.0802V11.3169L20.4035 18.2L29.7704 11.3477Z" fill="#FF7B30"/>
<path d="M14.1009 30.683H11V16.8704L14.1009 19.1389V30.683Z" fill="#FF7B30"/>
<path d="M26.6685 19.1403V27.3502C26.6685 27.4953 26.5446 27.613 26.3915 27.613H22.1904C22.0374 27.613 21.9134 27.4953 21.9134 27.3502V24.8576L18.8125 22.5873V30.2938C18.8125 30.5085 18.9959 30.6828 19.2222 30.6828H26.5704C28.338 30.6828 29.7707 29.3225 29.7707 27.6447V16.8708L26.6685 19.1403Z" fill="#FF7B30"/>
<path d="M25.9554 12.5527L21.9108 15.4992H18.8125V15.4799V12.5527H25.9554Z" fill="#FF7B30"/>
<path d="M39.3704 30V12.6674H41.4008L49.1757 25.7659H48.0862L55.7621 12.6674H57.7925L57.8172 30H55.4402L55.4154 16.4063H55.9849L49.1509 27.8953H48.0119L41.1284 16.4063H41.7474V30H39.3704ZM68.293 30.1486C66.9724 30.1486 65.8004 29.8597 64.7769 29.2819C63.7535 28.7042 62.9446 27.9118 62.3504 26.9049C61.7561 25.8814 61.459 24.7259 61.459 23.4384C61.459 22.1343 61.7561 20.9788 62.3504 19.9719C62.9446 18.9649 63.7535 18.1808 64.7769 17.6196C65.8004 17.0418 66.9724 16.753 68.293 16.753C69.5971 16.753 70.7608 17.0418 71.7843 17.6196C72.8242 18.1808 73.6331 18.9649 74.2108 19.9719C74.8051 20.9623 75.1022 22.1178 75.1022 23.4384C75.1022 24.7424 74.8051 25.898 74.2108 26.9049C73.6331 27.9118 72.8242 28.7042 71.7843 29.2819C70.7608 29.8597 69.5971 30.1486 68.293 30.1486ZM68.293 28.0687C69.1349 28.0687 69.8859 27.8788 70.5462 27.4992C71.223 27.1195 71.7512 26.583 72.1309 25.8897C72.5106 25.1799 72.7004 24.3628 72.7004 23.4384C72.7004 22.4975 72.5106 21.6886 72.1309 21.0118C71.7512 20.3185 71.223 19.782 70.5462 19.4024C69.8859 19.0227 69.1349 18.8329 68.293 18.8329C67.4511 18.8329 66.7 19.0227 66.0397 19.4024C65.3795 19.782 64.8512 20.3185 64.4551 21.0118C64.0589 21.6886 63.8608 22.4975 63.8608 23.4384C63.8608 24.3628 64.0589 25.1799 64.4551 25.8897C64.8512 26.583 65.3795 27.1195 66.0397 27.4992C66.7 27.8788 67.4511 28.0687 68.293 28.0687ZM84.0103 30.1486C82.6897 30.1486 81.5177 29.8597 80.4943 29.2819C79.4708 28.7042 78.662 27.9118 78.0677 26.9049C77.4734 25.8814 77.1763 24.7259 77.1763 23.4384C77.1763 22.1343 77.4734 20.9788 78.0677 19.9719C78.662 18.9649 79.4708 18.1808 80.4943 17.6196C81.5177 17.0418 82.6897 16.753 84.0103 16.753C85.3144 16.753 86.4781 17.0418 87.5016 17.6196C88.5415 18.1808 89.3504 18.9649 89.9281 19.9719C90.5224 20.9623 90.8195 22.1178 90.8195 23.4384C90.8195 24.7424 90.5224 25.898 89.9281 26.9049C89.3504 27.9118 88.5415 28.7042 87.5016 29.2819C86.4781 29.8597 85.3144 30.1486 84.0103 30.1486ZM84.0103 28.0687C84.8522 28.0687 85.6033 27.8788 86.2635 27.4992C86.9403 27.1195 87.4686 26.583 87.8482 25.8897C88.2279 25.1799 88.4177 24.3628 88.4177 23.4384C88.4177 22.4975 88.2279 21.6886 87.8482 21.0118C87.4686 20.3185 86.9403 19.782 86.2635 19.4024C85.6033 19.0227 84.8522 18.8329 84.0103 18.8329C83.1684 18.8329 82.4174 19.0227 81.7571 19.4024C81.0968 19.782 80.5685 20.3185 80.1724 21.0118C79.7762 21.6886 79.5781 22.4975 79.5781 23.4384C79.5781 24.3628 79.7762 25.1799 80.1724 25.8897C80.5685 26.583 81.0968 27.1195 81.7571 27.4992C82.4174 27.8788 83.1684 28.0687 84.0103 28.0687ZM101.114 16.753C102.187 16.753 103.128 16.9593 103.937 17.372C104.762 17.7847 105.406 18.4119 105.868 19.2538C106.331 20.0957 106.562 21.1604 106.562 22.4479V30H104.185V22.7203C104.185 21.4493 103.871 20.4918 103.244 19.8481C102.633 19.2043 101.766 18.8824 100.644 18.8824C99.8019 18.8824 99.0673 19.0475 98.4401 19.3776C97.8128 19.7077 97.3258 20.1947 96.9792 20.8385C96.649 21.4823 96.484 22.2829 96.484 23.2403V30H94.1069V16.8768H96.3849V20.4176L96.0135 19.4766C96.4427 18.6183 97.103 17.9497 97.9944 17.471C98.8858 16.9923 99.9257 16.753 101.114 16.753ZM111.307 30V12.6674H118.612C120.461 12.6674 122.087 13.0306 123.49 13.7569C124.909 14.4832 126.007 15.4984 126.783 16.8025C127.575 18.1065 127.971 19.617 127.971 21.3337C127.971 23.0505 127.575 24.5609 126.783 25.8649C126.007 27.169 124.909 28.1842 123.49 28.9105C122.087 29.6368 120.461 30 118.612 30H111.307ZM113.783 27.8458H118.463C119.899 27.8458 121.137 27.5734 122.177 27.0287C123.234 26.484 124.051 25.7246 124.629 24.7507C125.206 23.7603 125.495 22.6213 125.495 21.3337C125.495 20.0296 125.206 18.8906 124.629 17.9167C124.051 16.9428 123.234 16.1835 122.177 15.6387C121.137 15.094 119.899 14.8216 118.463 14.8216H113.783V27.8458ZM137.261 30.1486C135.858 30.1486 134.62 29.8597 133.547 29.2819C132.49 28.7042 131.665 27.9118 131.071 26.9049C130.493 25.898 130.204 24.7424 130.204 23.4384C130.204 22.1343 130.485 20.9788 131.046 19.9719C131.624 18.9649 132.408 18.1808 133.398 17.6196C134.405 17.0418 135.536 16.753 136.791 16.753C138.062 16.753 139.184 17.0336 140.158 17.5948C141.132 18.1561 141.891 18.9484 142.436 19.9719C142.997 20.9788 143.278 22.1591 143.278 23.5127C143.278 23.6117 143.27 23.7273 143.253 23.8593C143.253 23.9914 143.245 24.1152 143.228 24.2307H132.061V22.5222H141.99L141.025 23.1165C141.041 22.2746 140.868 21.5235 140.505 20.8633C140.142 20.203 139.638 19.6912 138.994 19.3281C138.367 18.9484 137.632 18.7586 136.791 18.7586C135.965 18.7586 135.231 18.9484 134.587 19.3281C133.943 19.6912 133.44 20.2112 133.076 20.888C132.713 21.5483 132.532 22.3076 132.532 23.166V23.5622C132.532 24.4371 132.73 25.2212 133.126 25.9145C133.539 26.5913 134.108 27.1195 134.834 27.4992C135.561 27.8788 136.394 28.0687 137.335 28.0687C138.111 28.0687 138.813 27.9366 139.44 27.6725C140.084 27.4084 140.645 27.0122 141.124 26.484L142.436 28.0191C141.842 28.7124 141.099 29.2407 140.208 29.6038C139.333 29.967 138.35 30.1486 137.261 30.1486ZM150.342 30.1486C149.253 30.1486 148.213 30 147.222 29.7029C146.248 29.4057 145.481 29.0426 144.92 28.6134L145.91 26.7316C146.471 27.1112 147.165 27.4331 147.99 27.6972C148.815 27.9614 149.657 28.0934 150.516 28.0934C151.622 28.0934 152.414 27.9366 152.893 27.623C153.388 27.3093 153.635 26.8719 153.635 26.3106C153.635 25.898 153.487 25.5761 153.19 25.345C152.893 25.1139 152.496 24.9405 152.001 24.825C151.523 24.7094 150.986 24.6104 150.392 24.5279C149.798 24.4288 149.203 24.3133 148.609 24.1812C148.015 24.0326 147.47 23.8346 146.975 23.5869C146.48 23.3228 146.083 22.9679 145.786 22.5222C145.489 22.06 145.341 21.4493 145.341 20.6899C145.341 19.8976 145.563 19.2043 146.009 18.61C146.455 18.0158 147.082 17.5618 147.891 17.2482C148.716 16.918 149.69 16.753 150.813 16.753C151.671 16.753 152.538 16.8603 153.413 17.0748C154.304 17.2729 155.03 17.5618 155.592 17.9415L154.576 19.8233C153.982 19.4271 153.363 19.1548 152.719 19.0062C152.076 18.8576 151.432 18.7833 150.788 18.7833C149.748 18.7833 148.972 18.9567 148.46 19.3033C147.949 19.6335 147.693 20.0627 147.693 20.5909C147.693 21.0366 147.841 21.3832 148.139 21.6308C148.452 21.8619 148.848 22.0435 149.327 22.1756C149.822 22.3076 150.367 22.4232 150.961 22.5222C151.556 22.6048 152.15 22.7203 152.744 22.8689C153.338 23.0009 153.875 23.1908 154.354 23.4384C154.849 23.686 155.245 24.0326 155.542 24.4783C155.856 24.924 156.012 25.5183 156.012 26.2611C156.012 27.0535 155.781 27.7385 155.319 28.3163C154.857 28.894 154.205 29.348 153.363 29.6781C152.521 29.9917 151.514 30.1486 150.342 30.1486ZM160.915 26.8306L160.964 23.785L168.516 16.8768H171.388L165.594 22.5718L164.307 23.6612L160.915 26.8306ZM158.983 30V11.6275H161.36V30H158.983ZM169.011 30L163.861 23.6117L165.396 21.7051L171.933 30H169.011Z" fill="#333333"/>
</svg>
