<svg width="688" height="1024" viewBox="0 0 688 1024" fill="none" xmlns="http://www.w3.org/2000/svg">
<g filter="url(#filter0_f_143_2062)">
<ellipse cx="450.549" cy="671.4" rx="191.799" ry="192.235" fill="#F115C7"/>
</g>
<g filter="url(#filter1_f_143_2062)">
<ellipse cx="415.272" cy="551.81" rx="119.532" ry="119.932" fill="#2BFFF2"/>
</g>
<g filter="url(#filter2_f_143_2062)">
<ellipse cx="-206.275" cy="-93.1915" rx="433.261" ry="434.841" fill="#75FFF7"/>
</g>
<g filter="url(#filter3_f_143_2062)">
<ellipse cx="-437.363" cy="1032.21" rx="358.944" ry="360.424" fill="white"/>
</g>
<g filter="url(#filter4_f_143_2062)">
<path d="M2873.79 910.315C2873.79 1383.04 2491.46 1766.26 2019.82 1766.26C1548.18 1766.26 948.411 1626.23 948.411 1626.23L1471.54 -250.831C1471.54 -250.831 2873.79 437.59 2873.79 910.315Z" fill="#00288F"/>
</g>
<g opacity="0.5" filter="url(#filter5_f_143_2062)">
<path d="M2707.14 704.219C2707.14 1176.94 2324.81 1560.16 1853.17 1560.16C1381.53 1560.16 781.76 1420.14 781.76 1420.14L1304.89 -456.927C1304.89 -456.927 2707.14 231.494 2707.14 704.219Z" fill="#F115C7"/>
</g>
<g style="mix-blend-mode:hard-light" opacity="0.5" filter="url(#filter6_f_143_2062)">
<path d="M-1027.05 1021.85C-888.238 1360.33 -657.064 1586.07 -510.704 1526.05C-364.344 1466.03 -219.337 1289.44 -219.337 1289.44L-932.848 11.9913C-932.848 11.9913 -1165.86 683.369 -1027.05 1021.85Z" fill="#62D84E"/>
</g>
<ellipse cx="604.232" cy="508.768" rx="122.043" ry="122.406" fill="url(#paint0_linear_143_2062)"/>
<ellipse cx="604.232" cy="508.768" rx="122.043" ry="122.406" fill="url(#paint1_linear_143_2062)"/>
<path d="M850.141 571.337C850.141 636.668 824.234 699.323 778.117 745.519C732.001 791.714 669.453 817.667 604.234 817.667C539.016 817.667 476.468 791.714 430.351 745.519C384.235 699.323 358.327 636.668 358.327 571.337H850.141ZM604.234 200.475C669.453 200.475 732.001 226.427 778.117 272.623C824.234 318.819 850.141 381.474 850.141 446.805H358.327C358.327 381.474 384.235 318.819 430.351 272.623C476.468 226.427 539.016 200.475 604.234 200.475Z" fill="url(#paint2_linear_143_2062)"/>
<path d="M997.685 691.794C997.685 796.194 956.232 896.319 882.446 970.141C808.659 1043.96 708.583 1085.44 604.234 1085.44C499.884 1085.44 399.807 1043.96 326.021 970.141C252.234 896.319 210.782 796.194 210.781 691.794H997.685ZM604.234 -72.8877C708.583 -72.8876 808.659 -31.4148 882.446 42.4072C956.232 116.229 997.685 216.354 997.685 320.754H210.781C210.781 216.354 252.234 116.229 326.021 42.4072C399.807 -31.4149 499.884 -72.8877 604.234 -72.8877Z" fill="url(#paint3_linear_143_2062)"/>
<path d="M1137.95 833.461C1137.95 975.078 1081.72 1110.89 981.625 1211.03C881.535 1311.17 745.784 1367.43 604.235 1367.43C462.687 1367.43 326.936 1311.17 226.846 1211.03C126.756 1110.89 70.5254 975.078 70.5254 833.461H1137.95ZM604.235 -353.539C745.784 -353.539 881.535 -297.282 981.625 -197.144C1081.72 -97.0052 1137.95 38.8117 1137.95 180.429H70.5254C70.5254 38.8117 126.756 -97.0052 226.846 -197.144C326.936 -297.282 462.687 -353.539 604.235 -353.539Z" fill="url(#paint4_linear_143_2062)"/>
<path d="M1273.34 1008.42C1273.34 1185.8 1202.85 1355.92 1077.36 1481.35C951.882 1606.78 781.69 1677.24 604.231 1677.24C426.772 1677.24 256.581 1606.78 131.099 1481.35C5.61609 1355.92 -64.879 1185.8 -64.879 1008.42H1273.34ZM604.231 -659.095C781.69 -659.095 951.882 -588.597 1077.36 -463.111C1202.85 -337.625 1273.34 -167.429 1273.34 10.0352H-64.879C-64.879 -167.429 5.61691 -337.625 131.099 -463.111C256.582 -588.597 426.772 -659.095 604.231 -659.095Z" fill="url(#paint5_linear_143_2062)"/>
<path d="M850.143 571.34C850.143 636.67 824.235 699.326 778.118 745.521C732.002 791.717 669.454 817.67 604.235 817.67C539.017 817.67 476.469 791.717 430.353 745.521C384.236 699.326 358.328 636.67 358.328 571.34H850.143ZM604.235 200.478C669.454 200.478 732.002 226.43 778.118 272.626C824.235 318.822 850.143 381.477 850.143 446.808H358.328C358.328 381.477 384.236 318.822 430.353 272.626C476.469 226.43 539.017 200.478 604.235 200.478Z" fill="url(#paint6_radial_143_2062)"/>
<path d="M997.69 691.796C997.69 796.196 956.237 896.32 882.451 970.143C808.665 1043.96 708.589 1085.44 604.239 1085.44C499.889 1085.44 399.813 1043.96 326.026 970.143C252.24 896.32 210.787 796.196 210.787 691.796H997.69ZM604.239 -72.8867C708.589 -72.8866 808.665 -31.4138 882.451 42.4082C956.237 116.23 997.69 216.355 997.69 320.755H210.787C210.787 216.355 252.24 116.23 326.026 42.4082C399.813 -31.4139 499.889 -72.8867 604.239 -72.8867Z" fill="url(#paint7_radial_143_2062)"/>
<path d="M1137.94 833.462C1137.94 975.079 1081.71 1110.9 981.622 1211.03C881.532 1311.17 745.781 1367.43 604.233 1367.43C462.684 1367.43 326.933 1311.17 226.843 1211.03C126.753 1110.9 70.5226 975.079 70.5226 833.462H1137.94ZM604.233 -353.537C745.781 -353.537 881.532 -297.279 981.622 -197.141C1081.71 -97.0028 1137.94 38.8142 1137.94 180.431H70.5226C70.5226 38.8142 126.753 -97.0028 226.843 -197.141C326.933 -297.279 462.684 -353.537 604.233 -353.537Z" fill="url(#paint8_radial_143_2062)"/>
<path d="M1273.35 1008.41C1273.35 1185.8 1202.85 1355.92 1077.37 1481.35C951.884 1606.77 781.693 1677.24 604.234 1677.24C426.775 1677.24 256.584 1606.77 131.101 1481.35C5.61861 1355.92 -64.8764 1185.8 -64.8765 1008.41H1273.35ZM604.234 -659.096C781.693 -659.096 951.884 -588.598 1077.37 -463.112C1202.85 -337.626 1273.35 -167.43 1273.35 10.0342H-64.8765C-64.8765 -167.43 5.61947 -337.626 131.102 -463.112C256.585 -588.598 426.775 -659.096 604.234 -659.096Z" fill="url(#paint9_linear_143_2062)"/>
<path opacity="0.6" d="M850.137 571.339C850.137 613.896 839.143 655.318 818.731 691.795H997.681C997.681 796.195 956.228 896.32 882.442 970.142C868.518 984.072 853.657 996.85 838.009 1008.42H1273.34C1273.34 1185.8 1202.85 1355.92 1077.36 1481.35C951.881 1606.78 781.69 1677.24 604.231 1677.24C426.772 1677.24 256.581 1606.78 131.098 1481.35C5.61559 1355.92 -64.8795 1185.8 -64.8795 1008.42H370.449C354.801 996.85 339.941 984.072 326.017 970.142C252.231 896.32 210.778 796.195 210.778 691.795H389.73C369.318 655.318 358.323 613.896 358.323 571.339H850.137ZM604.231 -659.096C781.69 -659.096 951.881 -588.598 1077.36 -463.112C1202.85 -337.626 1273.34 -167.43 1273.34 10.0342H1110.04C1128.35 64.4403 1137.94 121.941 1137.94 180.431H971.83C988.76 224.82 997.681 272.328 997.681 320.756H815.501C837.981 358.565 850.137 402.058 850.137 446.808H358.323C358.323 402.058 370.479 358.565 392.958 320.756H210.778C210.778 272.328 219.699 224.82 236.628 180.431H70.5209C70.5209 121.941 80.1131 64.4403 98.4252 10.0342H-64.8795C-64.8795 -167.43 5.61642 -337.626 131.099 -463.112C256.581 -588.598 426.772 -659.096 604.231 -659.096Z" fill="url(#paint10_linear_143_2062)"/>
<path opacity="0.8" d="M850.137 571.339C850.137 613.896 839.143 655.318 818.731 691.795H997.681C997.681 796.195 956.228 896.32 882.442 970.142C868.518 984.072 853.657 996.85 838.009 1008.42H1273.34C1273.34 1185.8 1202.85 1355.92 1077.36 1481.35C951.881 1606.78 781.69 1677.24 604.231 1677.24C426.772 1677.24 256.581 1606.78 131.098 1481.35C5.61559 1355.92 -64.8795 1185.8 -64.8795 1008.42H370.449C354.801 996.85 339.941 984.072 326.017 970.142C252.231 896.32 210.778 796.195 210.778 691.795H389.73C369.318 655.318 358.323 613.896 358.323 571.339H850.137ZM604.231 -659.096C781.69 -659.096 951.881 -588.598 1077.36 -463.112C1202.85 -337.626 1273.34 -167.43 1273.34 10.0342H1110.04C1128.35 64.4403 1137.94 121.941 1137.94 180.431H971.83C988.76 224.82 997.681 272.328 997.681 320.756H815.501C837.981 358.565 850.137 402.058 850.137 446.808H358.323C358.323 402.058 370.479 358.565 392.958 320.756H210.778C210.778 272.328 219.699 224.82 236.628 180.431H70.5209C70.5209 121.941 80.1131 64.4403 98.4252 10.0342H-64.8795C-64.8795 -167.43 5.61642 -337.626 131.099 -463.112C256.581 -588.598 426.772 -659.096 604.231 -659.096Z" fill="url(#paint11_linear_143_2062)"/>
<rect x="359.199" y="201.349" width="490.066" height="615.443" stroke="url(#paint12_linear_143_2062)" stroke-width="1.74817"/>
<rect x="211.653" y="-72.0121" width="785.155" height="1156.7" stroke="url(#paint13_linear_143_2062)" stroke-width="1.74817"/>
<rect x="71.0399" y="-279.072" width="1066.38" height="1570.73" stroke="url(#paint14_linear_143_2062)" stroke-width="1.74817"/>
<rect x="-63.5554" y="-658.322" width="1335.99" height="1742.68" stroke="url(#paint15_linear_143_2062)" stroke-opacity="0.41" stroke-width="1.74817"/>
<rect x="483.061" y="387.236" width="242.338" height="243.063" stroke="url(#paint16_linear_143_2062)" stroke-width="1.74817"/>
<defs>
<filter id="filter0_f_143_2062" x="-69.6252" y="150.791" width="1040.35" height="1041.22" filterUnits="userSpaceOnUse" color-interpolation-filters="sRGB">
<feFlood flood-opacity="0" result="BackgroundImageFix"/>
<feBlend mode="normal" in="SourceGraphic" in2="BackgroundImageFix" result="shape"/>
<feGaussianBlur stdDeviation="164.188" result="effect1_foregroundBlur_143_2062"/>
</filter>
<filter id="filter1_f_143_2062" x="-32.6355" y="103.503" width="895.814" height="896.615" filterUnits="userSpaceOnUse" color-interpolation-filters="sRGB">
<feFlood flood-opacity="0" result="BackgroundImageFix"/>
<feBlend mode="normal" in="SourceGraphic" in2="BackgroundImageFix" result="shape"/>
<feGaussianBlur stdDeviation="164.188" result="effect1_foregroundBlur_143_2062"/>
</filter>
<filter id="filter2_f_143_2062" x="-1186.83" y="-1075.32" width="1961.11" height="1964.27" filterUnits="userSpaceOnUse" color-interpolation-filters="sRGB">
<feFlood flood-opacity="0" result="BackgroundImageFix"/>
<feBlend mode="normal" in="SourceGraphic" in2="BackgroundImageFix" result="shape"/>
<feGaussianBlur stdDeviation="273.646" result="effect1_foregroundBlur_143_2062"/>
</filter>
<filter id="filter3_f_143_2062" x="-1343.6" y="124.499" width="1812.47" height="1815.43" filterUnits="userSpaceOnUse" color-interpolation-filters="sRGB">
<feFlood flood-opacity="0" result="BackgroundImageFix"/>
<feBlend mode="normal" in="SourceGraphic" in2="BackgroundImageFix" result="shape"/>
<feGaussianBlur stdDeviation="273.646" result="effect1_foregroundBlur_143_2062"/>
</filter>
<filter id="filter4_f_143_2062" x="401.119" y="-798.123" width="3019.97" height="3111.67" filterUnits="userSpaceOnUse" color-interpolation-filters="sRGB">
<feFlood flood-opacity="0" result="BackgroundImageFix"/>
<feBlend mode="normal" in="SourceGraphic" in2="BackgroundImageFix" result="shape"/>
<feGaussianBlur stdDeviation="273.646" result="effect1_foregroundBlur_143_2062"/>
</filter>
<filter id="filter5_f_143_2062" x="-93.9068" y="-1332.59" width="3676.71" height="3768.42" filterUnits="userSpaceOnUse" color-interpolation-filters="sRGB">
<feFlood flood-opacity="0" result="BackgroundImageFix"/>
<feBlend mode="normal" in="SourceGraphic" in2="BackgroundImageFix" result="shape"/>
<feGaussianBlur stdDeviation="437.833" result="effect1_foregroundBlur_143_2062"/>
</filter>
<filter id="filter6_f_143_2062" x="-1618.47" y="-535.3" width="1946.42" height="2618.31" filterUnits="userSpaceOnUse" color-interpolation-filters="sRGB">
<feFlood flood-opacity="0" result="BackgroundImageFix"/>
<feBlend mode="normal" in="SourceGraphic" in2="BackgroundImageFix" result="shape"/>
<feGaussianBlur stdDeviation="273.646" result="effect1_foregroundBlur_143_2062"/>
</filter>
<linearGradient id="paint0_linear_143_2062" x1="678.155" y1="440.375" x2="457.453" y2="499.477" gradientUnits="userSpaceOnUse">
<stop stop-color="#F15715"/>
<stop offset="1" stop-color="#FFDC52"/>
</linearGradient>
<linearGradient id="paint1_linear_143_2062" x1="1062.35" y1="692.832" x2="637.181" y2="538.841" gradientUnits="userSpaceOnUse">
<stop stop-color="#F15715"/>
<stop offset="1" stop-color="#EAF115" stop-opacity="0"/>
</linearGradient>
<linearGradient id="paint2_linear_143_2062" x1="358.617" y1="509.071" x2="1030.35" y2="530.766" gradientUnits="userSpaceOnUse">
<stop stop-color="white"/>
<stop offset="0.385923" stop-color="#00E0FF"/>
<stop offset="1" stop-color="#1B0085"/>
</linearGradient>
<linearGradient id="paint3_linear_143_2062" x1="211.246" y1="506.274" x2="1094.16" y2="506.274" gradientUnits="userSpaceOnUse">
<stop stop-color="white"/>
<stop offset="0.35" stop-color="#00E0FF"/>
<stop offset="1" stop-color="#1B0085"/>
</linearGradient>
<linearGradient id="paint4_linear_143_2062" x1="-50.4533" y1="506.945" x2="1209.1" y2="506.729" gradientUnits="userSpaceOnUse">
<stop offset="0.081817" stop-color="white"/>
<stop offset="0.35" stop-color="#00E0FF"/>
<stop offset="1" stop-color="#1B0085"/>
</linearGradient>
<linearGradient id="paint5_linear_143_2062" x1="-598.944" y1="509.074" x2="1065.31" y2="509.354" gradientUnits="userSpaceOnUse">
<stop offset="0.288956" stop-color="white"/>
<stop offset="0.440042" stop-color="#00E0FF"/>
<stop offset="1" stop-color="#1B0085"/>
</linearGradient>
<radialGradient id="paint6_radial_143_2062" cx="0" cy="0" r="1" gradientUnits="userSpaceOnUse" gradientTransform="translate(849.854 509.354) rotate(-180) scale(491.235 177.66)">
<stop stop-color="#F115C7"/>
<stop offset="1" stop-color="#F115C7" stop-opacity="0"/>
</radialGradient>
<radialGradient id="paint7_radial_143_2062" cx="0" cy="0" r="1" gradientUnits="userSpaceOnUse" gradientTransform="translate(997.575 506.802) rotate(-180) scale(786.676 303.51)">
<stop stop-color="#F115C7"/>
<stop offset="1" stop-color="#F115C7" stop-opacity="0"/>
</radialGradient>
<radialGradient id="paint8_radial_143_2062" cx="0" cy="0" r="1" gradientUnits="userSpaceOnUse" gradientTransform="translate(1137.79 507.728) rotate(-180) scale(1067.62 498.286)">
<stop stop-color="#F115C7"/>
<stop offset="1" stop-color="#F115C7" stop-opacity="0"/>
</radialGradient>
<linearGradient id="paint9_linear_143_2062" x1="-598.942" y1="509.073" x2="1065.31" y2="509.353" gradientUnits="userSpaceOnUse">
<stop offset="0.288956" stop-color="white"/>
<stop offset="0.440042" stop-color="#00E0FF"/>
<stop offset="1" stop-color="#1B0085"/>
</linearGradient>
<linearGradient id="paint10_linear_143_2062" x1="1864.66" y1="546.939" x2="540.871" y2="543.27" gradientUnits="userSpaceOnUse">
<stop stop-color="#F115C7"/>
<stop offset="1" stop-color="#F115C7" stop-opacity="0"/>
</linearGradient>
<linearGradient id="paint11_linear_143_2062" x1="-32.9755" y1="727.874" x2="565.387" y2="551.657" gradientUnits="userSpaceOnUse">
<stop stop-color="#62D84E"/>
<stop offset="1" stop-color="#62D84E" stop-opacity="0"/>
</linearGradient>
<linearGradient id="paint12_linear_143_2062" x1="358.615" y1="509.351" x2="858.154" y2="509.351" gradientUnits="userSpaceOnUse">
<stop stop-color="#F18ADD"/>
<stop offset="1" stop-color="#EA41CA"/>
</linearGradient>
<linearGradient id="paint13_linear_143_2062" x1="210.895" y1="454.284" x2="997.571" y2="454.284" gradientUnits="userSpaceOnUse">
<stop stop-color="#78FE85"/>
<stop offset="1" stop-color="#00C1B6"/>
</linearGradient>
<linearGradient id="paint14_linear_143_2062" x1="1138.3" y1="444.67" x2="70.1658" y2="444.67" gradientUnits="userSpaceOnUse">
<stop stop-color="#0094FF"/>
<stop offset="1" stop-color="#8598FF"/>
</linearGradient>
<linearGradient id="paint15_linear_143_2062" x1="-63.9926" y1="489.871" x2="1272.87" y2="489.871" gradientUnits="userSpaceOnUse">
<stop stop-color="#76FFEF"/>
<stop offset="1" stop-color="#4B67D9"/>
</linearGradient>
<linearGradient id="paint16_linear_143_2062" x1="736.217" y1="581.901" x2="481.859" y2="581.901" gradientUnits="userSpaceOnUse">
<stop stop-color="#49BEFF"/>
<stop offset="1" stop-color="#E2F5FF"/>
</linearGradient>
</defs>
</svg>
