<svg width="154" height="30" viewBox="0 0 154 30" fill="none" xmlns="http://www.w3.org/2000/svg">
<path d="M28.1237 24V6.66742H30.1541L37.929 19.7659H36.8395L44.5154 6.66742H46.5458L46.5705 24H44.1935L44.1687 10.4063H44.7382L37.9042 21.8953H36.7652L29.8817 10.4063H30.5007V24H28.1237ZM57.0463 24.1486C55.7257 24.1486 54.5537 23.8597 53.5302 23.2819C52.5068 22.7042 51.6979 21.9118 51.1037 20.9049C50.5094 19.8814 50.2123 18.7259 50.2123 17.4384C50.2123 16.1343 50.5094 14.9788 51.1037 13.9719C51.6979 12.9649 52.5068 12.1808 53.5302 11.6196C54.5537 11.0418 55.7257 10.753 57.0463 10.753C58.3503 10.753 59.5141 11.0418 60.5376 11.6196C61.5775 12.1808 62.3864 12.9649 62.9641 13.9719C63.5584 14.9623 63.8555 16.1178 63.8555 17.4384C63.8555 18.7424 63.5584 19.898 62.9641 20.9049C62.3864 21.9118 61.5775 22.7042 60.5376 23.2819C59.5141 23.8597 58.3503 24.1486 57.0463 24.1486ZM57.0463 22.0687C57.8881 22.0687 58.6392 21.8788 59.2995 21.4992C59.9763 21.1195 60.5045 20.583 60.8842 19.8897C61.2639 19.1799 61.4537 18.3628 61.4537 17.4384C61.4537 16.4975 61.2639 15.6886 60.8842 15.0118C60.5045 14.3185 59.9763 13.782 59.2995 13.4024C58.6392 13.0227 57.8881 12.8329 57.0463 12.8329C56.2044 12.8329 55.4533 13.0227 54.793 13.4024C54.1328 13.782 53.6045 14.3185 53.2083 15.0118C52.8122 15.6886 52.6141 16.4975 52.6141 17.4384C52.6141 18.3628 52.8122 19.1799 53.2083 19.8897C53.6045 20.583 54.1328 21.1195 54.793 21.4992C55.4533 21.8788 56.2044 22.0687 57.0463 22.0687ZM72.7636 24.1486C71.443 24.1486 70.271 23.8597 69.2476 23.2819C68.2241 22.7042 67.4153 21.9118 66.821 20.9049C66.2267 19.8814 65.9296 18.7259 65.9296 17.4384C65.9296 16.1343 66.2267 14.9788 66.821 13.9719C67.4153 12.9649 68.2241 12.1808 69.2476 11.6196C70.271 11.0418 71.443 10.753 72.7636 10.753C74.0677 10.753 75.2314 11.0418 76.2549 11.6196C77.2948 12.1808 78.1037 12.9649 78.6814 13.9719C79.2757 14.9623 79.5728 16.1178 79.5728 17.4384C79.5728 18.7424 79.2757 19.898 78.6814 20.9049C78.1037 21.9118 77.2948 22.7042 76.2549 23.2819C75.2314 23.8597 74.0677 24.1486 72.7636 24.1486ZM72.7636 22.0687C73.6055 22.0687 74.3565 21.8788 75.0168 21.4992C75.6936 21.1195 76.2219 20.583 76.6015 19.8897C76.9812 19.1799 77.171 18.3628 77.171 17.4384C77.171 16.4975 76.9812 15.6886 76.6015 15.0118C76.2219 14.3185 75.6936 13.782 75.0168 13.4024C74.3565 13.0227 73.6055 12.8329 72.7636 12.8329C71.9217 12.8329 71.1707 13.0227 70.5104 13.4024C69.8501 13.782 69.3218 14.3185 68.9257 15.0118C68.5295 15.6886 68.3314 16.4975 68.3314 17.4384C68.3314 18.3628 68.5295 19.1799 68.9257 19.8897C69.3218 20.583 69.8501 21.1195 70.5104 21.4992C71.1707 21.8788 71.9217 22.0687 72.7636 22.0687ZM89.8675 10.753C90.9405 10.753 91.8814 10.9593 92.6903 11.372C93.5156 11.7847 94.1594 12.4119 94.6216 13.2538C95.0838 14.0957 95.3149 15.1604 95.3149 16.4479V24H92.9379V16.7203C92.9379 15.4493 92.6242 14.4918 91.997 13.8481C91.3862 13.2043 90.5196 12.8824 89.3971 12.8824C88.5552 12.8824 87.8206 13.0475 87.1934 13.3776C86.5661 13.7077 86.0791 14.1947 85.7325 14.8385C85.4023 15.4823 85.2373 16.2829 85.2373 17.2403V24H82.8602V10.8768H85.1382V14.4176L84.7668 13.4766C85.196 12.6183 85.8563 11.9497 86.7477 11.471C87.6391 10.9923 88.679 10.753 89.8675 10.753ZM100.061 24V6.66742H107.365C109.214 6.66742 110.84 7.03058 112.243 7.75689C113.663 8.48321 114.76 9.4984 115.536 10.8025C116.329 12.1065 116.725 13.617 116.725 15.3337C116.725 17.0505 116.329 18.5609 115.536 19.8649C114.76 21.169 113.663 22.1842 112.243 22.9105C110.84 23.6368 109.214 24 107.365 24H100.061ZM102.537 21.8458H107.217C108.653 21.8458 109.891 21.5734 110.931 21.0287C111.987 20.484 112.804 19.7246 113.382 18.7507C113.96 17.7603 114.249 16.6213 114.249 15.3337C114.249 14.0296 113.96 12.8906 113.382 11.9167C112.804 10.9428 111.987 10.1835 110.931 9.63872C109.891 9.09398 108.653 8.82161 107.217 8.82161H102.537V21.8458ZM120.171 24V10.8768H122.548V24H120.171ZM121.359 8.35115C120.897 8.35115 120.509 8.20259 120.195 7.90546C119.898 7.60833 119.75 7.24517 119.75 6.81598C119.75 6.37029 119.898 5.99887 120.195 5.70174C120.509 5.40461 120.897 5.25605 121.359 5.25605C121.821 5.25605 122.201 5.40461 122.498 5.70174C122.812 5.98237 122.969 6.33727 122.969 6.76646C122.969 7.21216 122.82 7.59182 122.523 7.90546C122.226 8.20259 121.838 8.35115 121.359 8.35115ZM130.528 24L124.784 10.8768H127.26L132.36 22.762H131.172L136.372 10.8768H138.699L132.955 24H130.528ZM146.398 24.1486C144.995 24.1486 143.757 23.8597 142.684 23.2819C141.628 22.7042 140.803 21.9118 140.208 20.9049C139.63 19.898 139.342 18.7424 139.342 17.4384C139.342 16.1343 139.622 14.9788 140.183 13.9719C140.761 12.9649 141.545 12.1808 142.536 11.6196C143.543 11.0418 144.673 10.753 145.928 10.753C147.199 10.753 148.322 11.0336 149.295 11.5948C150.269 12.1561 151.029 12.9484 151.573 13.9719C152.135 14.9788 152.415 16.1591 152.415 17.5127C152.415 17.6117 152.407 17.7273 152.391 17.8593C152.391 17.9914 152.382 18.1152 152.366 18.2307H141.199V16.5222H151.128L150.162 17.1165C150.179 16.2746 150.005 15.5235 149.642 14.8633C149.279 14.203 148.775 13.6912 148.132 13.3281C147.504 12.9484 146.77 12.7586 145.928 12.7586C145.103 12.7586 144.368 12.9484 143.724 13.3281C143.08 13.6912 142.577 14.2112 142.214 14.888C141.851 15.5483 141.669 16.3076 141.669 17.166V17.5622C141.669 18.4371 141.867 19.2212 142.263 19.9145C142.676 20.5913 143.246 21.1195 143.972 21.4992C144.698 21.8788 145.532 22.0687 146.473 22.0687C147.249 22.0687 147.95 21.9366 148.577 21.6725C149.221 21.4084 149.782 21.0122 150.261 20.484L151.573 22.0191C150.979 22.7124 150.236 23.2407 149.345 23.6038C148.47 23.967 147.488 24.1486 146.398 24.1486Z" fill="#333333"/>
<path d="M18.7704 5.45898V9.20117L9.38552 16.0747L0 9.19154V5.42822L9.40351 12.3114L18.7704 5.45898Z" fill="url(#paint0_linear_127_1012)"/>
<path d="M3.10093 24.7945H0V10.9819L3.10093 13.2504V24.7945Z" fill="url(#paint1_linear_127_1012)"/>
<path d="M15.6675 13.2514V21.4612C15.6675 21.6063 15.5436 21.7241 15.3906 21.7241H11.1894C11.0364 21.7241 10.9125 21.6063 10.9125 21.4612V18.9687L7.81155 16.6984V24.4049C7.81155 24.6196 7.99498 24.7939 8.22124 24.7939H15.5694C17.337 24.7939 18.7698 23.4336 18.7698 21.7558V10.9819L15.6675 13.2514Z" fill="url(#paint2_linear_127_1012)"/>
<path d="M14.9544 6.66406L10.9099 9.61052H7.81155V9.59126V6.66406H14.9544Z" fill="url(#paint3_linear_127_1012)"/>
<defs>
<linearGradient id="paint0_linear_127_1012" x1="6.75028" y1="3.75911" x2="17.4053" y2="19.7284" gradientUnits="userSpaceOnUse">
<stop stop-color="#00FFA9"/>
<stop offset="1" stop-color="#0D4DFF"/>
</linearGradient>
<linearGradient id="paint1_linear_127_1012" x1="-4.27362" y1="11.1401" x2="6.4761" y2="27.2513" gradientUnits="userSpaceOnUse">
<stop stop-color="#00FFA9"/>
<stop offset="1" stop-color="#0D4DFF"/>
</linearGradient>
<linearGradient id="paint2_linear_127_1012" x1="4.2173" y1="5.47447" x2="14.967" y2="21.5856" gradientUnits="userSpaceOnUse">
<stop stop-color="#00FFA9"/>
<stop offset="1" stop-color="#0D4DFF"/>
</linearGradient>
<linearGradient id="paint3_linear_127_1012" x1="7.78283" y1="3.26477" x2="18.0248" y2="18.615" gradientUnits="userSpaceOnUse">
<stop stop-color="#00FFA9"/>
<stop offset="1" stop-color="#0D4DFF"/>
</linearGradient>
</defs>
</svg>
